<?xml version="1.0" encoding="UTF-8" standalone="no"?>
<!DOCTYPE svg PUBLIC "-//W3C//DTD SVG 1.1//EN"
 "http://www.w3.org/Graphics/SVG/1.1/DTD/svg11.dtd">
<!-- Generated by graphviz version 2.43.0 (0)
 -->
<!-- Title: DataPipeline Pages: 1 -->
<svg width="1197pt" height="288pt"
 viewBox="0.00 0.00 1197.00 288.00" xmlns="http://www.w3.org/2000/svg" xmlns:xlink="http://www.w3.org/1999/xlink">
<g id="graph0" class="graph" transform="scale(1 1) rotate(0) translate(4 284)">
<title>DataPipeline</title>
<polygon fill="white" stroke="transparent" points="-4,4 -4,-284 1193,-284 1193,4 -4,4"/>
<text text-anchor="middle" x="594.5" y="-7.8" font-family="Times,serif" font-size="14.00">Haskell by Example Tutorial: Data Pipeline Video 9</text>
<g id="clust1" class="cluster">
<title>cluster_interface</title>
<polygon fill="#cdcd00" stroke="#cdcd00" points="8,-60 8,-243 149,-243 149,-60 8,-60"/>
<text text-anchor="middle" x="78.5" y="-227.8" font-family="Times,serif" font-size="14.00">NCTRS</text>
</g>
<g id="clust2" class="cluster">
<title>cluster_tmChain</title>
<defs>
<linearGradient id="l_0" gradientUnits="userSpaceOnUse" x1="169" y1="-151.5" x2="710" y2="-151.5" >
<stop offset="0" style="stop-color:blue;stop-opacity:1.;"/>
<stop offset="1" style="stop-color:yellow;stop-opacity:1.;"/>
</linearGradient>
</defs>
<polygon fill="url(#l_0)" stroke="lightgrey" points="169,-114 169,-189 710,-189 710,-114 169,-114"/>
<text text-anchor="middle" x="439.5" y="-173.8" font-family="Times,serif" font-size="14.00">Main Thread</text>
</g>
<g id="clust3" class="cluster">
<title>cluster_vc0</title>
<defs>
<linearGradient id="l_1" gradientUnits="userSpaceOnUse" x1="734.5" y1="-234.5" x2="1176.5" y2="-234.5" >
<stop offset="0" style="stop-color:blue;stop-opacity:1.;"/>
<stop offset="1" style="stop-color:yellow;stop-opacity:1.;"/>
</linearGradient>
</defs>
<polygon fill="url(#l_1)" stroke="lightgrey" points="734.5,-197 734.5,-272 1176.5,-272 1176.5,-197 734.5,-197"/>
<text text-anchor="middle" x="955.5" y="-256.8" font-family="Times,serif" font-size="14.00">VC0 Thread</text>
</g>
<g id="clust4" class="cluster">
<title>cluster_vc1</title>
<defs>
<linearGradient id="l_2" gradientUnits="userSpaceOnUse" x1="730" y1="-151.5" x2="1181" y2="-151.5" >
<stop offset="0" style="stop-color:blue;stop-opacity:1.;"/>
<stop offset="1" style="stop-color:yellow;stop-opacity:1.;"/>
</linearGradient>
</defs>
<polygon fill="url(#l_2)" stroke="lightgrey" points="730,-114 730,-189 1181,-189 1181,-114 730,-114"/>
<text text-anchor="middle" x="955.5" y="-173.8" font-family="Times,serif" font-size="14.00">VC1 Thread</text>
</g>
<g id="clust5" class="cluster">
<title>cluster_vc7</title>
<defs>
<linearGradient id="l_3" gradientUnits="userSpaceOnUse" x1="730" y1="-68.5" x2="1181" y2="-68.5" >
<stop offset="0" style="stop-color:blue;stop-opacity:1.;"/>
<stop offset="1" style="stop-color:yellow;stop-opacity:1.;"/>
</linearGradient>
</defs>
<polygon fill="url(#l_3)" stroke="lightgrey" points="730,-31 730,-106 1181,-106 1181,-31 730,-31"/>
<text text-anchor="middle" x="955.5" y="-90.8" font-family="Times,serif" font-size="14.00">VC7 Thread</text>
</g>
<!-- nctrs_tc -->
<g id="node1" class="node">
<title>nctrs_tc</title>
<polygon fill="white" stroke="white" points="124.5,-212 32.5,-212 32.5,-176 124.5,-176 124.5,-212"/>
<text text-anchor="middle" x="78.5" y="-190.3" font-family="Times,serif" font-size="14.00">NCTRS TC</text>
</g>
<!-- nctrs_tm -->
<g id="node2" class="node">
<title>nctrs_tm</title>
<polygon fill="white" stroke="white" points="126.5,-158 30.5,-158 30.5,-122 126.5,-122 126.5,-158"/>
<text text-anchor="middle" x="78.5" y="-136.3" font-family="Times,serif" font-size="14.00">NCTRS TM</text>
</g>
<!-- appSource -->
<g id="node4" class="node">
<title>appSource</title>
<polygon fill="white" stroke="white" points="269,-158 177,-158 177,-122 269,-122 269,-158"/>
<text text-anchor="middle" x="223" y="-136.3" font-family="Times,serif" font-size="14.00">appSource</text>
</g>
<!-- nctrs_tm&#45;&gt;appSource -->
<g id="edge10" class="edge">
<title>nctrs_tm&#45;&gt;appSource</title>
<path fill="none" stroke="black" d="M126.55,-140C139.48,-140 153.6,-140 166.93,-140"/>
<polygon fill="black" stroke="black" points="166.93,-143.5 176.93,-140 166.93,-136.5 166.93,-143.5"/>
</g>
<!-- nctrs_admin -->
<g id="node3" class="node">
<title>nctrs_admin</title>
<polygon fill="white" stroke="white" points="141,-104 16,-104 16,-68 141,-68 141,-104"/>
<text text-anchor="middle" x="78.5" y="-82.3" font-family="Times,serif" font-size="14.00">NCTRS ADMIN</text>
</g>
<!-- ncduTmC -->
<g id="node5" class="node">
<title>ncduTmC</title>
<polygon fill="white" stroke="white" points="389,-158 305,-158 305,-122 389,-122 389,-158"/>
<text text-anchor="middle" x="347" y="-136.3" font-family="Times,serif" font-size="14.00">ncduTmC</text>
</g>
<!-- appSource&#45;&gt;ncduTmC -->
<g id="edge1" class="edge">
<title>appSource&#45;&gt;ncduTmC</title>
<path fill="none" stroke="black" d="M269.08,-140C277.38,-140 286.1,-140 294.58,-140"/>
<polygon fill="black" stroke="black" points="294.74,-143.5 304.74,-140 294.74,-136.5 294.74,-143.5"/>
</g>
<!-- ncduToTMFrameC -->
<g id="node6" class="node">
<title>ncduToTMFrameC</title>
<polygon fill="white" stroke="white" points="574,-158 425,-158 425,-122 574,-122 574,-158"/>
<text text-anchor="middle" x="499.5" y="-136.3" font-family="Times,serif" font-size="14.00">ncduToTMFrameC</text>
</g>
<!-- ncduTmC&#45;&gt;ncduToTMFrameC -->
<g id="edge2" class="edge">
<title>ncduTmC&#45;&gt;ncduToTMFrameC</title>
<path fill="none" stroke="black" d="M389.12,-140C397.16,-140 405.84,-140 414.69,-140"/>
<polygon fill="black" stroke="black" points="414.72,-143.5 424.72,-140 414.72,-136.5 414.72,-143.5"/>
</g>
<!-- vcSwitchC -->
<g id="node7" class="node">
<title>vcSwitchC</title>
<polygon fill="white" stroke="white" points="702,-158 610,-158 610,-122 702,-122 702,-158"/>
<text text-anchor="middle" x="656" y="-136.3" font-family="Times,serif" font-size="14.00">vcSwitchC</text>
</g>
<!-- ncduToTMFrameC&#45;&gt;vcSwitchC -->
<g id="edge3" class="edge">
<title>ncduToTMFrameC&#45;&gt;vcSwitchC</title>
<path fill="none" stroke="black" d="M574.13,-140C582.66,-140 591.24,-140 599.47,-140"/>
<polygon fill="black" stroke="black" points="599.66,-143.5 609.66,-140 599.66,-136.5 599.66,-143.5"/>
</g>
<!-- sourceTBQueue -->
<g id="node8" class="node">
<title>sourceTBQueue</title>
<polygon fill="white" stroke="white" points="871.5,-241 742.5,-241 742.5,-205 871.5,-205 871.5,-241"/>
<text text-anchor="middle" x="807" y="-219.3" font-family="Times,serif" font-size="14.00">sourceTBQueue</text>
</g>
<!-- vcSwitchC&#45;&gt;sourceTBQueue -->
<g id="edge11" class="edge">
<title>vcSwitchC&#45;&gt;sourceTBQueue</title>
<path fill="none" stroke="black" d="M678.72,-158.01C692.75,-169.06 711.74,-182.98 730,-193 734.9,-195.69 740.08,-198.26 745.36,-200.68"/>
<polygon fill="black" stroke="black" points="744.34,-204.06 754.9,-204.89 747.16,-197.65 744.34,-204.06"/>
</g>
<!-- sourceTBQueue1 -->
<g id="node11" class="node">
<title>sourceTBQueue1</title>
<polygon fill="white" stroke="white" points="876,-158 738,-158 738,-122 876,-122 876,-158"/>
<text text-anchor="middle" x="807" y="-136.3" font-family="Times,serif" font-size="14.00">sourceTBQueue1</text>
</g>
<!-- vcSwitchC&#45;&gt;sourceTBQueue1 -->
<g id="edge12" class="edge">
<title>vcSwitchC&#45;&gt;sourceTBQueue1</title>
<path fill="none" stroke="black" d="M702.11,-140C710.24,-140 718.92,-140 727.67,-140"/>
<polygon fill="black" stroke="black" points="727.95,-143.5 737.95,-140 727.95,-136.5 727.95,-143.5"/>
</g>
<!-- sourceTBQueue2 -->
<g id="node14" class="node">
<title>sourceTBQueue2</title>
<polygon fill="white" stroke="white" points="876,-75 738,-75 738,-39 876,-39 876,-75"/>
<text text-anchor="middle" x="807" y="-53.3" font-family="Times,serif" font-size="14.00">sourceTBQueue2</text>
</g>
<!-- vcSwitchC&#45;&gt;sourceTBQueue2 -->
<g id="edge13" class="edge">
<title>vcSwitchC&#45;&gt;sourceTBQueue2</title>
<path fill="none" stroke="black" d="M689.33,-121.99C711.42,-109.69 740.87,-93.28 764.66,-80.03"/>
<polygon fill="black" stroke="black" points="766.44,-83.04 773.48,-75.12 763.04,-76.93 766.44,-83.04"/>
</g>
<!-- gapCheckC -->
<g id="node9" class="node">
<title>gapCheckC</title>
<polygon fill="white" stroke="white" points="1013.5,-241 916.5,-241 916.5,-205 1013.5,-205 1013.5,-241"/>
<text text-anchor="middle" x="965" y="-219.3" font-family="Times,serif" font-size="14.00">gapCheckC</text>
</g>
<!-- sourceTBQueue&#45;&gt;gapCheckC -->
<g id="edge4" class="edge">
<title>sourceTBQueue&#45;&gt;gapCheckC</title>
<path fill="none" stroke="black" d="M871.9,-223C883.24,-223 894.99,-223 906.15,-223"/>
<polygon fill="black" stroke="black" points="906.2,-226.5 916.2,-223 906.2,-219.5 906.2,-226.5"/>
</g>
<!-- prettyShowC -->
<g id="node10" class="node">
<title>prettyShowC</title>
<polygon fill="white" stroke="white" points="1168.5,-241 1058.5,-241 1058.5,-205 1168.5,-205 1168.5,-241"/>
<text text-anchor="middle" x="1113.5" y="-219.3" font-family="Times,serif" font-size="14.00">prettyShowC</text>
</g>
<!-- gapCheckC&#45;&gt;prettyShowC -->
<g id="edge5" class="edge">
<title>gapCheckC&#45;&gt;prettyShowC</title>
<path fill="none" stroke="black" d="M1013.56,-223C1024.61,-223 1036.56,-223 1048.19,-223"/>
<polygon fill="black" stroke="black" points="1048.31,-226.5 1058.31,-223 1048.31,-219.5 1048.31,-226.5"/>
</g>
<!-- gapCheckC1 -->
<g id="node12" class="node">
<title>gapCheckC1</title>
<polygon fill="white" stroke="white" points="1018,-158 912,-158 912,-122 1018,-122 1018,-158"/>
<text text-anchor="middle" x="965" y="-136.3" font-family="Times,serif" font-size="14.00">gapCheckC1</text>
</g>
<!-- sourceTBQueue1&#45;&gt;gapCheckC1 -->
<g id="edge6" class="edge">
<title>sourceTBQueue1&#45;&gt;gapCheckC1</title>
<path fill="none" stroke="black" d="M876.42,-140C884.71,-140 893.15,-140 901.35,-140"/>
<polygon fill="black" stroke="black" points="901.58,-143.5 911.58,-140 901.58,-136.5 901.58,-143.5"/>
</g>
<!-- prettyShowC1 -->
<g id="node13" class="node">
<title>prettyShowC1</title>
<polygon fill="white" stroke="white" points="1173,-158 1054,-158 1054,-122 1173,-122 1173,-158"/>
<text text-anchor="middle" x="1113.5" y="-136.3" font-family="Times,serif" font-size="14.00">prettyShowC1</text>
</g>
<!-- gapCheckC1&#45;&gt;prettyShowC1 -->
<g id="edge7" class="edge">
<title>gapCheckC1&#45;&gt;prettyShowC1</title>
<path fill="none" stroke="black" d="M1018.06,-140C1026.4,-140 1035.13,-140 1043.78,-140"/>
<polygon fill="black" stroke="black" points="1043.87,-143.5 1053.87,-140 1043.87,-136.5 1043.87,-143.5"/>
</g>
<!-- gapCheckC2 -->
<g id="node15" class="node">
<title>gapCheckC2</title>
<polygon fill="white" stroke="white" points="1018,-75 912,-75 912,-39 1018,-39 1018,-75"/>
<text text-anchor="middle" x="965" y="-53.3" font-family="Times,serif" font-size="14.00">gapCheckC2</text>
</g>
<!-- sourceTBQueue2&#45;&gt;gapCheckC2 -->
<g id="edge8" class="edge">
<title>sourceTBQueue2&#45;&gt;gapCheckC2</title>
<path fill="none" stroke="black" d="M876.42,-57C884.71,-57 893.15,-57 901.35,-57"/>
<polygon fill="black" stroke="black" points="901.58,-60.5 911.58,-57 901.58,-53.5 901.58,-60.5"/>
</g>
<!-- prettyShowC2 -->
<g id="node16" class="node">
<title>prettyShowC2</title>
<polygon fill="white" stroke="white" points="1173,-75 1054,-75 1054,-39 1173,-39 1173,-75"/>
<text text-anchor="middle" x="1113.5" y="-53.3" font-family="Times,serif" font-size="14.00">prettyShowC2</text>
</g>
<!-- gapCheckC2&#45;&gt;prettyShowC2 -->
<g id="edge9" class="edge">
<title>gapCheckC2&#45;&gt;prettyShowC2</title>
<path fill="none" stroke="black" d="M1018.06,-57C1026.4,-57 1035.13,-57 1043.78,-57"/>
<polygon fill="black" stroke="black" points="1043.87,-60.5 1053.87,-57 1043.87,-53.5 1043.87,-60.5"/>
</g>
</g>
</svg>
