<?xml version="1.0" encoding="UTF-8" standalone="no"?>
<!DOCTYPE svg PUBLIC "-//W3C//DTD SVG 1.1//EN"
 "http://www.w3.org/Graphics/SVG/1.1/DTD/svg11.dtd">
<!-- Generated by graphviz version 2.43.0 (0)
 -->
<!-- Title: DataPipeline Pages: 1 -->
<svg width="744pt" height="230pt"
 viewBox="0.00 0.00 744.00 230.00" xmlns="http://www.w3.org/2000/svg" xmlns:xlink="http://www.w3.org/1999/xlink">
<g id="graph0" class="graph" transform="scale(1 1) rotate(0) translate(4 226)">
<title>DataPipeline</title>
<polygon fill="white" stroke="transparent" points="-4,4 -4,-226 740,-226 740,4 -4,4"/>
<text text-anchor="middle" x="368" y="-7.8" font-family="Times,serif" font-size="14.00">Haskell by Example Tutorial: Data Pipeline Video 8</text>
<g id="clust1" class="cluster">
<title>cluster_interface</title>
<polygon fill="#cdcd00" stroke="#cdcd00" points="8,-31 8,-214 149,-214 149,-31 8,-31"/>
<text text-anchor="middle" x="78.5" y="-198.8" font-family="Times,serif" font-size="14.00">NCTRS</text>
</g>
<g id="clust2" class="cluster">
<title>cluster_tmChain</title>
<defs>
<linearGradient id="l_0" gradientUnits="userSpaceOnUse" x1="169" y1="-122.5" x2="728" y2="-122.5" >
<stop offset="0" style="stop-color:blue;stop-opacity:1.;"/>
<stop offset="1" style="stop-color:yellow;stop-opacity:1.;"/>
</linearGradient>
</defs>
<polygon fill="url(#l_0)" stroke="lightgrey" points="169,-85 169,-160 728,-160 728,-85 169,-85"/>
<text text-anchor="middle" x="448.5" y="-144.8" font-family="Times,serif" font-size="14.00">Main Thread</text>
</g>
<!-- nctrs_tc -->
<g id="node1" class="node">
<title>nctrs_tc</title>
<polygon fill="white" stroke="white" points="124.5,-183 32.5,-183 32.5,-147 124.5,-147 124.5,-183"/>
<text text-anchor="middle" x="78.5" y="-161.3" font-family="Times,serif" font-size="14.00">NCTRS TC</text>
</g>
<!-- nctrs_tm -->
<g id="node2" class="node">
<title>nctrs_tm</title>
<polygon fill="white" stroke="white" points="126.5,-129 30.5,-129 30.5,-93 126.5,-93 126.5,-129"/>
<text text-anchor="middle" x="78.5" y="-107.3" font-family="Times,serif" font-size="14.00">NCTRS TM</text>
</g>
<!-- appSource -->
<g id="node4" class="node">
<title>appSource</title>
<polygon fill="white" stroke="white" points="269,-129 177,-129 177,-93 269,-93 269,-129"/>
<text text-anchor="middle" x="223" y="-107.3" font-family="Times,serif" font-size="14.00">appSource</text>
</g>
<!-- nctrs_tm&#45;&gt;appSource -->
<g id="edge4" class="edge">
<title>nctrs_tm&#45;&gt;appSource</title>
<path fill="none" stroke="black" d="M126.55,-111C139.48,-111 153.6,-111 166.93,-111"/>
<polygon fill="black" stroke="black" points="166.93,-114.5 176.93,-111 166.93,-107.5 166.93,-114.5"/>
</g>
<!-- nctrs_admin -->
<g id="node3" class="node">
<title>nctrs_admin</title>
<polygon fill="white" stroke="white" points="141,-75 16,-75 16,-39 141,-39 141,-75"/>
<text text-anchor="middle" x="78.5" y="-53.3" font-family="Times,serif" font-size="14.00">NCTRS ADMIN</text>
</g>
<!-- ncduTmC -->
<g id="node5" class="node">
<title>ncduTmC</title>
<polygon fill="white" stroke="white" points="389,-129 305,-129 305,-93 389,-93 389,-129"/>
<text text-anchor="middle" x="347" y="-107.3" font-family="Times,serif" font-size="14.00">ncduTmC</text>
</g>
<!-- appSource&#45;&gt;ncduTmC -->
<g id="edge1" class="edge">
<title>appSource&#45;&gt;ncduTmC</title>
<path fill="none" stroke="black" d="M269.08,-111C277.38,-111 286.1,-111 294.58,-111"/>
<polygon fill="black" stroke="black" points="294.74,-114.5 304.74,-111 294.74,-107.5 294.74,-114.5"/>
</g>
<!-- ncduToTMFrameC -->
<g id="node6" class="node">
<title>ncduToTMFrameC</title>
<polygon fill="white" stroke="white" points="574,-129 425,-129 425,-93 574,-93 574,-129"/>
<text text-anchor="middle" x="499.5" y="-107.3" font-family="Times,serif" font-size="14.00">ncduToTMFrameC</text>
</g>
<!-- ncduTmC&#45;&gt;ncduToTMFrameC -->
<g id="edge2" class="edge">
<title>ncduTmC&#45;&gt;ncduToTMFrameC</title>
<path fill="none" stroke="black" d="M389.12,-111C397.16,-111 405.84,-111 414.69,-111"/>
<polygon fill="black" stroke="black" points="414.72,-114.5 424.72,-111 414.72,-107.5 414.72,-114.5"/>
</g>
<!-- prettyShowC -->
<g id="node7" class="node">
<title>prettyShowC</title>
<polygon fill="white" stroke="white" points="720,-129 610,-129 610,-93 720,-93 720,-129"/>
<text text-anchor="middle" x="665" y="-107.3" font-family="Times,serif" font-size="14.00">prettyShowC</text>
</g>
<!-- ncduToTMFrameC&#45;&gt;prettyShowC -->
<g id="edge3" class="edge">
<title>ncduToTMFrameC&#45;&gt;prettyShowC</title>
<path fill="none" stroke="black" d="M574.12,-111C582.68,-111 591.35,-111 599.77,-111"/>
<polygon fill="black" stroke="black" points="599.88,-114.5 609.88,-111 599.88,-107.5 599.88,-114.5"/>
</g>
</g>
</svg>
